<?xml version="1.0" encoding="UTF-8" standalone="no"?>
<!-- Generator: Adobe Illustrator 17.0.0, SVG Export Plug-In . SVG Version: 6.00 Build 0)  -->

<svg
   xmlns:dc="http://purl.org/dc/elements/1.1/"
   xmlns:cc="http://creativecommons.org/ns#"
   xmlns:rdf="http://www.w3.org/1999/02/22-rdf-syntax-ns#"
   xmlns:svg="http://www.w3.org/2000/svg"
   xmlns="http://www.w3.org/2000/svg"
   xmlns:sodipodi="http://sodipodi.sourceforge.net/DTD/sodipodi-0.dtd"
   xmlns:inkscape="http://www.inkscape.org/namespaces/inkscape"
   version="1.1"
   id="Laag_1"
   x="0px"
   y="0px"
   width="324.61316"
   height="66.084"
   viewBox="0 0 324.61316 66.084002"
   enable-background="new 0 0 393.371 131.799"
   xml:space="preserve"
   inkscape:version="0.91 r13725"
   sodipodi:docname="logo.svg"><metadata
     id="metadata4386"><rdf:RDF><cc:Work
         rdf:about=""><dc:format>image/svg+xml</dc:format><dc:type
           rdf:resource="http://purl.org/dc/dcmitype/StillImage" /><dc:title></dc:title></cc:Work></rdf:RDF></metadata><defs
     id="defs4384" /><sodipodi:namedview
     pagecolor="#ffffff"
     bordercolor="#666666"
     borderopacity="1"
     objecttolerance="10"
     gridtolerance="10"
     guidetolerance="10"
     inkscape:pageopacity="0"
     inkscape:pageshadow="2"
     inkscape:window-width="1871"
     inkscape:window-height="1056"
     id="namedview4382"
     showgrid="false"
     fit-margin-top="0"
     fit-margin-left="0"
     fit-margin-right="0"
     fit-margin-bottom="0"
     inkscape:zoom="2.9742914"
     inkscape:cx="163.9215"
     inkscape:cy="28.482502"
     inkscape:window-x="49"
     inkscape:window-y="24"
     inkscape:window-maximized="1"
     inkscape:current-layer="Laag_1" /><g
     id="g4290"
     transform="translate(-32.764,-28.298)"><linearGradient
       id="SVGID_1_"
       gradientUnits="userSpaceOnUse"
       x1="252.5182"
       y1="86.203003"
       x2="261.0332"
       y2="94.414001"><stop
         offset="0.0874"
         style="stop-color:#0093D5"
         id="stop4293" /><stop
         offset="0.166"
         style="stop-color:#0089CE"
         id="stop4295" /><stop
         offset="0.3487"
         style="stop-color:#0074BC"
         id="stop4297" /><stop
         offset="0.4952"
         style="stop-color:#0066B2"
         id="stop4299" /><stop
         offset="0.5863"
         style="stop-color:#0062AE"
         id="stop4301" /></linearGradient><path
       d="m 251.383,87.339 0,7.03 8.332,0 0,-10.488 -8.332,3.458 z"
       id="path4303"
       inkscape:connector-curvature="0"
       style="fill:url(#SVGID_1_)" /></g><g
     id="g4305"
     transform="translate(-32.764,-28.298)"><path
       d="m 116.839,94.369 -24.062,0 3.757,-8.232 20.405,0 c 3.823,0 5.408,-1.268 5.653,-4.521 0.044,-0.758 0.072,-1.263 0.079,-1.474 l -0.167,-2.079 c -0.251,-3.001 -0.914,-4.057 -1.188,-4.372 -0.597,-0.735 -1.904,-1.11 -3.801,-1.11 l -9.223,0 c -9.909,0 -14.933,-4.642 -14.933,-13.796 l 0,-2.864 c 0,-4.287 1.673,-7.646 4.974,-9.983 2.777,-1.955 6.297,-2.945 10.465,-2.945 l 18.861,0 -3.118,8.318 -15.655,0 c -3.562,0 -4.852,0.658 -5.241,0.941 -1.347,0.983 -1.949,2.087 -1.949,3.58 l 0,2.866 c 0,2.137 0.562,3.532 1.717,4.266 1.189,0.779 2.184,1.123 4.966,1.123 l 9.401,0 c 8.463,0 13.317,5.014 13.317,13.757 l 0,2.247 c 0,3.27 -0.52,5.799 -1.589,7.733 -2.418,4.345 -6.68,6.545 -12.669,6.545 z"
       id="path4307"
       inkscape:connector-curvature="0" /></g><g
     id="g4309"
     transform="translate(-32.764,-28.298)"><g
       id="g4311"><path
         d="m 178.429,94.369 -9.882,0 c -5.03,0 -9.021,-1.7 -11.864,-5.053 -2.247,-2.476 -3.397,-5.645 -3.397,-9.395 l 0,-4.731 c 0,-4.435 1.376,-8.048 4.09,-10.739 2.712,-2.69 6.381,-4.055 10.906,-4.055 l 16.541,0 0,-0.184 c 0,-2.088 -0.52,-8.901 -7.214,-8.901 l -15.52,0 3.117,-8.318 12.017,0 c 9.98,0 15.938,6.615 15.938,17.695 l 0,18.516 c 0,4.571 -1.274,8.263 -3.788,10.974 -2.575,2.782 -6.257,4.191 -10.944,4.191 z m -10.277,-25.74 c -0.051,0.003 -0.32,0.025 -1.111,0.142 -3.846,0.597 -5.417,2.433 -5.417,6.333 l 0,4.644 c 0,3.746 1.664,5.558 5.742,6.256 0.707,0.126 0.982,0.133 1.03,0.133 l 10.184,0 c 4.492,0 6.242,-1.743 6.242,-6.216 l 0,-11.292 -16.67,0 z"
         id="path4313"
         inkscape:connector-curvature="0" /></g></g><g
     id="g4315"
     transform="translate(-32.764,-28.298)"><path
       d="m 207.915,94.369 -8.515,0 0,-35.605 c 0,-0.132 0.005,-0.258 0.01,-0.385 l 0.007,-0.194 -0.001,-15.19 8.426,0 0,2.614 c 1.319,-1.869 3.681,-2.382 4.492,-2.506 0.592,-0.09 1.812,-0.134 3.728,-0.134 1.42,0 2.683,0.025 2.683,0.025 l 1.482,0 -3.098,8.298 -3.446,0.094 c -4.077,0.385 -5.769,2.522 -5.769,7.372 l 0,35.611 z"
       id="path4317"
       inkscape:connector-curvature="0" /></g><g
     id="g4319"
     transform="translate(-32.764,-28.298)"><path
       d="m 238.199,94.369 -8.337,0 0,-43.056 -6.494,0 3.117,-8.318 3.377,0 0,-14.697 8.337,0 0,14.698 13.954,0 -6.234,8.318 -7.72,0 0,43.055 z"
       id="path4321"
       inkscape:connector-curvature="0" /></g><g
     id="g4323"
     transform="translate(-32.764,-28.298)"><path
       d="m 311.07,94.369 -8.338,0 0,-36.129 c 0,-4.92 -1.98,-6.927 -6.835,-6.927 l -4.42,0 c -2.352,0 -3.856,0.721 -4.877,2.337 -0.488,0.787 -1.075,2.471 -1.075,5.976 l 0,34.743 -8.514,0 0,-34.743 c 0,-2.502 -0.281,-4.446 -0.812,-5.623 -0.561,-1.321 -1.558,-2.09 -3.242,-2.515 -0.468,-0.115 -0.979,-0.174 -1.512,-0.174 l -4.401,0 c -5.205,0 -7.328,2.007 -7.328,6.927 l 0,19.401 -8.338,3.576 0,-21.675 c 0,-10.517 5.659,-16.548 15.527,-16.548 l 4.597,0 c 4.166,0 7.535,1.288 10.031,3.831 2.481,-2.542 5.823,-3.831 9.946,-3.831 l 4.596,0 c 9.531,0 14.997,6.031 14.997,16.548 l 0,34.826 z"
       id="path4325"
       inkscape:connector-curvature="0" /></g><g
     id="g4327"
     transform="translate(-32.764,-28.298)"><g
       id="g4329"><path
         d="m 353.799,94.369 -19.229,0 c -4.769,0 -8.742,-1.144 -11.808,-3.399 -3.619,-2.678 -5.453,-6.454 -5.453,-11.221 l 0,-20.663 c 0,-5.019 1.214,-8.879 3.607,-11.471 2.399,-2.6 6.186,-4.122 11.255,-4.523 0.866,-0.064 1.573,-0.096 2.167,-0.096 l 8.292,0.087 c 4.78,0.057 8.533,1.312 11.813,3.949 3.167,2.545 3.013,8.617 2.877,13.974 -0.025,1.004 -0.048,1.918 -0.048,2.747 l 0.009,3.272 -31.653,9.838 -0.012,1.4 c 0.069,3.862 0.994,5.16 2.018,6.247 1.011,1.064 3.178,1.628 6.263,1.628 l 19.902,0 0,8.231 z M 335.046,51.401 c -3.37,0 -5.883,0.493 -7.268,1.424 -1.435,0.959 -2.132,2.753 -2.132,5.483 l 0,9.809 24.166,-7.021 c 0.047,-1.604 0.071,-3.548 0.071,-3.738 -0.115,-3.761 -1.431,-5.957 -7.815,-5.957 l -7.022,0 z"
         id="path4331"
         inkscape:connector-curvature="0" /></g></g><g
     id="g4333"
     transform="translate(-32.764,-28.298)"><path
       d="m 145.501,94.369 -8.337,0 0,-43.056 -6.494,0 3.117,-8.318 3.377,0 0,-14.697 8.337,0 0,14.698 13.45,0 -3.118,8.318 -10.332,0 0,43.055 z"
       id="path4335"
       inkscape:connector-curvature="0" /></g><linearGradient
     id="SVGID_2_"
     gradientUnits="userSpaceOnUse"
     x1="37.1749"
     y1="41.137798"
     x2="86.466202"
     y2="104.9156"
     gradientTransform="translate(-32.764,-28.298)"><stop
       offset="0.1831"
       style="stop-color:#0093D5"
       id="stop4338" /><stop
       offset="0.3762"
       style="stop-color:#007AC2"
       id="stop4340" /><stop
       offset="0.5409"
       style="stop-color:#0068B3"
       id="stop4342" /><stop
       offset="0.6319"
       style="stop-color:#0062AE"
       id="stop4344" /></linearGradient><rect
     x="0"
     y="14.685001"
     width="51.398998"
     height="51.398998"
     id="rect4346"
     style="fill:url(#SVGID_2_)" /><g
     id="g4348"
     transform="translate(-32.764,-28.298)"><path
       d="m 44.148,62.719 0,23.374 27.701,0 0,-34.871 -27.701,11.497 z"
       id="path4350"
       inkscape:connector-curvature="0"
       style="fill:#ffffff" /></g></svg>